<svg width="606" height="647" viewBox="0 0 606 647" fill="none" xmlns="http://www.w3.org/2000/svg">
  <path fill="white" d="M0 0h606v647H0Z" /><line x1="118" y1="124" x2="118" y2="425" stroke="black" stroke-width="10"></line><line x1="218" y1="127.983" x2="218.98" y2="424.984" stroke="black" stroke-width="10"></line><line x1="108.159" y1="118.799" x2="178.159" y2="34.7991" stroke="black" stroke-width="10"></line><line x1="209.511" y1="125.419" x2="248.511" y2="87.4189" stroke="black" stroke-width="10"></line><line x1="181.036" y1="31.0001" x2="459.036" y2="33.0001" stroke="black" stroke-width="10"></line><line x1="251" y1="86" x2="425" y2="86" stroke="black" stroke-width="10"></line><line x1="426.824" y1="88.6864" x2="481.824" y2="290.686" stroke="black" stroke-width="10"></line><line x1="460.738" y1="34.4029" x2="550.738" y2="301.403" stroke="black" stroke-width="10"></line><line x1="474.568" y1="293.29" x2="322.568" y2="384.29" stroke="black" stroke-width="10"></line><line x1="550.845" y1="304.236" x2="488.845" y2="547.236" stroke="black" stroke-width="10"></line><line x1="459.49" y1="396.581" x2="341.49" y2="511.581" stroke="black" stroke-width="10"></line><line x1="320.741" y1="383.59" x2="265.741" y2="547.59" stroke="black" stroke-width="10"></line><line x1="487.098" y1="549.878" x2="247.098" y2="603.878" stroke="black" stroke-width="10"></line><line x1="257.32" y1="543.76" x2="213.32" y2="426.76" stroke="black" stroke-width="10"></line><line x1="245.441" y1="603.296" x2="109.441" y2="522.296" stroke="black" stroke-width="10"></line><line x1="103.005" y1="515.78" x2="107.005" y2="424.78" stroke="black" stroke-width="10"></line>
</svg>
